<svg id="svg" version="1.1" xmlns="http://www.w3.org/2000/svg" xmlns:xlink="http://www.w3.org/1999/xlink" viewBox="0, 0, 400,400"><g id="svgg"><path id="path0" d="M242.578 17.997 C 241.826 18.160,240.555 18.395,239.753 18.518 C 237.286 18.899,234.623 19.555,234.196 19.887 C 233.972 20.061,232.910 20.523,231.836 20.913 C 229.866 21.630,227.782 22.858,227.252 23.614 C 227.094 23.839,226.962 23.881,226.959 23.706 C 226.953 23.394,223.895 25.419,222.646 26.563 C 218.706 30.168,217.969 30.873,217.969 31.031 C 217.969 31.132,217.573 31.641,217.090 32.162 C 215.711 33.647,213.789 36.440,213.508 37.366 C 213.367 37.830,212.995 38.308,212.680 38.428 C 212.366 38.549,212.109 38.923,212.109 39.259 C 212.109 39.596,211.822 40.310,211.471 40.846 C 211.119 41.383,210.942 41.931,211.077 42.066 C 211.211 42.201,211.164 42.503,210.972 42.737 C 210.514 43.298,209.758 46.158,209.531 48.189 C 209.432 49.078,209.291 49.980,209.218 50.195 C 209.145 50.410,209.253 51.729,209.459 53.125 C 209.664 54.521,209.866 55.928,209.907 56.250 C 210.246 58.886,214.367 64.895,216.604 66.015 C 217.247 66.337,217.861 66.707,217.969 66.838 C 218.823 67.875,227.140 67.776,228.421 66.714 C 228.754 66.437,229.043 66.283,229.064 66.371 C 229.110 66.567,231.734 65.717,233.594 64.903 C 234.346 64.574,235.099 64.295,235.268 64.282 C 235.437 64.268,235.701 64.062,235.854 63.822 C 236.007 63.583,236.528 63.263,237.012 63.112 C 237.495 62.961,237.891 62.664,237.891 62.451 C 237.891 62.238,238.032 62.151,238.205 62.258 C 238.378 62.364,239.389 61.655,240.451 60.681 C 241.514 59.707,242.778 58.643,243.262 58.316 C 243.745 57.990,244.141 57.479,244.141 57.182 C 244.141 56.884,244.360 56.633,244.629 56.624 C 244.897 56.615,245.908 55.480,246.875 54.102 C 247.842 52.723,248.765 51.588,248.926 51.579 C 249.087 51.570,249.222 51.343,249.226 51.074 C 249.230 50.806,249.845 49.378,250.593 47.902 C 251.341 46.426,251.953 44.976,251.953 44.680 C 251.953 44.383,252.092 44.141,252.262 44.141 C 252.679 44.141,253.994 39.129,253.701 38.656 C 253.574 38.450,253.646 38.281,253.861 38.281 C 254.836 38.281,254.185 30.410,252.957 27.344 C 252.325 25.765,251.887 24.462,251.937 24.306 C 251.956 24.247,251.502 23.764,250.929 23.232 C 250.355 22.701,250.026 22.266,250.198 22.266 C 250.370 22.266,250.155 21.958,249.721 21.582 C 246.821 19.072,245.852 18.317,245.508 18.301 C 245.293 18.291,244.854 18.152,244.531 17.992 C 244.209 17.832,243.330 17.834,242.578 17.997 M200.728 20.496 C 200.627 20.597,199.970 20.723,199.266 20.776 C 198.563 20.830,197.903 21.011,197.799 21.179 C 197.695 21.347,197.132 21.484,196.548 21.484 C 195.964 21.484,195.140 21.727,194.716 22.024 C 194.292 22.321,193.807 22.574,193.637 22.586 C 193.004 22.631,189.364 25.064,188.296 26.157 C 187.686 26.781,187.111 27.215,187.019 27.123 C 186.926 27.030,186.615 27.393,186.328 27.930 C 186.041 28.467,185.572 28.906,185.286 28.906 C 185.000 28.906,184.766 29.258,184.766 29.688 C 184.766 30.117,184.610 30.469,184.420 30.469 C 184.229 30.469,183.788 31.070,183.440 31.805 C 183.091 32.539,182.667 33.198,182.498 33.269 C 181.076 33.866,180.337 41.592,181.488 43.828 C 181.787 44.408,182.031 45.083,182.031 45.327 C 182.031 49.783,192.430 48.952,197.306 44.107 C 197.865 43.551,198.612 42.985,198.966 42.850 C 199.320 42.714,199.609 42.376,199.609 42.098 C 199.609 41.821,199.967 41.371,200.405 41.097 C 200.843 40.824,201.370 40.156,201.576 39.613 C 201.783 39.069,202.128 38.734,202.343 38.867 C 202.558 39.000,202.734 38.841,202.734 38.513 C 202.734 37.867,203.940 35.084,204.359 34.765 C 205.664 33.768,206.060 26.589,204.927 24.456 C 204.078 22.859,202.581 21.094,202.075 21.094 C 201.793 21.094,201.563 20.918,201.563 20.703 C 201.563 20.300,201.051 20.173,200.728 20.496 M167.496 24.431 C 167.379 24.548,166.778 24.735,166.161 24.847 C 165.544 24.958,164.674 25.392,164.229 25.810 C 163.783 26.228,163.325 26.476,163.210 26.361 C 163.096 26.247,162.780 26.421,162.508 26.748 C 162.236 27.076,161.816 27.344,161.573 27.344 C 161.331 27.344,160.442 27.959,159.597 28.711 C 158.752 29.463,157.929 30.078,157.768 30.078 C 157.607 30.078,157.363 30.430,157.227 30.859 C 157.090 31.289,156.742 31.641,156.452 31.641 C 156.162 31.641,155.691 32.168,155.406 32.813 C 155.121 33.457,154.769 33.984,154.624 33.984 C 154.227 33.984,153.026 37.840,152.878 39.585 C 152.806 40.426,152.549 41.354,152.306 41.647 C 149.325 45.239,159.058 50.317,162.441 46.934 C 162.810 46.565,163.806 45.934,164.654 45.532 C 166.359 44.722,171.484 39.756,171.484 38.914 C 171.484 38.620,171.906 37.610,172.422 36.670 C 174.899 32.153,174.307 27.417,170.996 25.270 C 169.487 24.291,167.994 23.933,167.496 24.431 M135.818 36.188 C 135.727 36.278,135.321 36.419,134.916 36.501 C 134.511 36.582,133.652 36.927,133.008 37.267 C 132.363 37.607,131.677 37.887,131.482 37.888 C 131.288 37.890,130.584 38.299,129.920 38.798 C 129.255 39.298,128.403 39.819,128.027 39.958 C 127.651 40.096,127.344 40.384,127.344 40.596 C 127.344 40.809,126.674 41.687,125.854 42.548 C 125.035 43.410,124.113 44.603,123.804 45.202 C 123.496 45.800,123.128 46.377,122.987 46.484 C 121.774 47.410,121.309 54.337,122.308 56.594 C 122.853 57.825,127.346 58.073,129.688 57.002 C 129.795 56.952,130.059 56.889,130.273 56.860 C 130.793 56.789,132.933 55.396,133.295 54.892 C 133.453 54.672,133.584 54.650,133.588 54.844 C 133.591 55.037,134.736 54.006,136.133 52.554 C 137.529 51.101,138.672 49.669,138.672 49.370 C 138.672 49.072,138.845 48.828,139.057 48.828 C 139.516 48.828,140.625 46.308,140.625 45.265 C 140.625 44.861,140.787 44.531,140.984 44.531 C 141.182 44.531,141.290 43.738,141.225 42.768 C 141.097 40.878,140.342 38.672,139.823 38.672 C 139.648 38.672,139.394 38.320,139.258 37.891 C 139.121 37.461,138.670 37.109,138.255 37.109 C 137.840 37.109,137.500 36.954,137.500 36.764 C 137.500 36.395,136.093 35.912,135.818 36.188 M106.723 54.626 C 106.033 54.952,105.469 55.374,105.469 55.563 C 105.469 55.751,105.318 55.812,105.133 55.698 C 104.948 55.584,104.353 55.989,103.810 56.598 C 103.267 57.207,102.496 57.950,102.095 58.247 C 101.695 58.545,101.172 59.229,100.933 59.766 C 100.694 60.303,100.038 61.695,99.475 62.859 C 98.705 64.450,98.558 65.104,98.883 65.495 C 99.174 65.846,99.181 66.016,98.903 66.016 C 98.232 66.016,100.399 69.526,101.108 69.587 C 104.168 69.849,105.992 69.068,108.574 66.390 C 113.774 60.998,114.158 55.600,109.427 54.399 C 108.331 54.121,107.672 54.176,106.723 54.626 M169.845 59.973 C 169.756 60.061,168.111 60.225,166.189 60.335 C 164.268 60.445,162.256 60.620,161.719 60.724 C 160.197 61.016,157.786 61.346,155.859 61.525 C 154.893 61.615,152.370 62.129,150.255 62.668 C 148.139 63.206,146.293 63.624,146.153 63.597 C 146.013 63.570,145.591 63.664,145.215 63.805 C 143.409 64.485,143.138 64.577,142.773 64.633 C 142.559 64.666,142.031 64.831,141.602 65.000 C 141.172 65.169,140.293 65.488,139.648 65.707 C 139.004 65.927,137.947 66.339,137.299 66.622 C 135.740 67.304,133.837 68.024,133.594 68.024 C 133.486 68.024,133.072 68.320,132.674 68.680 C 132.275 69.041,131.878 69.288,131.791 69.230 C 131.556 69.074,129.140 70.362,128.863 70.791 C 128.731 70.994,128.467 71.167,128.277 71.174 C 127.594 71.200,126.243 71.834,125.988 72.248 C 125.844 72.480,125.564 72.568,125.364 72.444 C 125.164 72.321,125.000 72.372,125.000 72.559 C 125.000 72.746,123.834 73.670,122.410 74.614 C 120.018 76.198,118.133 77.683,116.341 79.395 C 115.947 79.771,115.449 80.078,115.234 80.078 C 115.020 80.078,114.844 80.223,114.844 80.400 C 114.844 80.577,113.865 81.763,112.668 83.036 C 108.944 86.999,108.594 87.432,108.594 88.084 C 108.594 88.433,108.428 88.616,108.226 88.491 C 108.023 88.365,107.564 88.882,107.205 89.639 C 106.845 90.396,106.396 91.016,106.205 91.016 C 106.015 91.016,105.859 91.367,105.859 91.797 C 105.859 92.227,105.699 92.578,105.504 92.578 C 105.308 92.578,104.766 93.413,104.300 94.434 C 103.833 95.454,103.115 96.965,102.702 97.791 C 102.290 98.617,101.953 99.592,101.953 99.959 C 101.953 100.325,101.788 100.792,101.586 100.996 C 101.249 101.337,100.919 102.489,100.586 104.492 C 100.514 104.922,100.423 105.273,100.382 105.273 C 100.342 105.273,100.253 105.889,100.185 106.641 C 99.999 108.689,99.738 110.179,99.251 111.991 C 99.009 112.888,98.836 113.765,98.866 113.940 C 98.896 114.115,98.885 114.346,98.842 114.453 C 98.708 114.786,98.504 116.127,98.278 118.164 C 98.159 119.238,97.951 121.084,97.817 122.266 C 97.085 128.695,97.063 146.620,97.778 152.734 C 97.917 153.916,98.139 156.816,98.273 159.180 C 98.548 164.048,98.668 165.838,98.983 169.727 C 99.969 181.927,99.910 196.176,98.849 201.852 C 98.664 202.841,98.603 203.883,98.713 204.168 C 98.822 204.454,98.698 204.688,98.437 204.688 C 98.177 204.688,98.063 204.946,98.184 205.262 C 98.305 205.579,98.237 206.326,98.032 206.923 C 97.828 207.519,97.583 208.623,97.489 209.375 C 97.395 210.127,97.286 210.742,97.247 210.742 C 97.208 210.742,97.120 211.182,97.051 211.719 C 96.938 212.587,96.040 216.444,95.458 218.555 C 95.339 218.984,95.195 219.600,95.136 219.922 C 95.078 220.244,94.909 220.789,94.761 221.133 C 94.613 221.477,94.529 221.916,94.574 222.110 C 94.619 222.303,94.553 222.725,94.428 223.047 C 94.304 223.369,94.008 224.512,93.771 225.586 C 93.534 226.660,93.241 227.979,93.120 228.516 C 92.998 229.053,92.862 229.759,92.818 230.085 C 92.773 230.411,92.612 230.879,92.461 231.124 C 92.309 231.369,92.303 231.878,92.448 232.255 C 92.614 232.688,92.559 232.847,92.300 232.687 C 92.037 232.524,91.927 232.890,91.994 233.697 C 92.052 234.392,91.958 235.138,91.785 235.354 C 91.084 236.226,90.721 246.568,91.216 251.563 C 91.376 253.174,91.495 254.800,91.481 255.176 C 91.466 255.552,91.582 255.859,91.737 255.859 C 91.893 255.859,92.050 256.167,92.086 256.543 C 92.239 258.120,92.477 258.903,93.445 261.009 C 94.006 262.230,94.913 263.619,95.461 264.095 C 96.009 264.572,96.365 265.111,96.253 265.293 C 96.140 265.476,96.234 265.625,96.461 265.625 C 96.689 265.625,97.198 265.933,97.593 266.309 C 100.229 268.819,107.092 271.450,110.513 271.262 C 114.556 271.039,117.082 270.556,119.141 269.612 C 120.624 268.931,120.846 268.878,123.371 268.596 C 124.302 268.493,125.488 268.129,126.008 267.789 C 126.528 267.448,126.953 267.289,126.953 267.434 C 126.953 267.580,127.261 267.429,127.637 267.099 C 128.013 266.769,128.760 266.369,129.297 266.211 C 129.834 266.053,130.581 265.653,130.957 265.323 C 131.333 264.993,131.641 264.877,131.641 265.065 C 131.641 265.254,131.914 265.018,132.249 264.540 C 132.583 264.063,133.111 263.672,133.421 263.672 C 133.731 263.672,133.984 263.484,133.984 263.253 C 133.984 262.723,134.974 261.719,135.497 261.719 C 135.715 261.719,136.205 261.191,136.586 260.547 C 136.966 259.902,137.416 259.375,137.584 259.375 C 137.753 259.375,137.891 259.120,137.891 258.808 C 137.891 258.497,138.110 258.101,138.379 257.930 C 138.918 257.584,140.625 255.254,140.625 254.862 C 140.625 254.726,141.328 253.220,142.188 251.516 C 143.047 249.812,143.751 248.114,143.752 247.744 C 143.754 247.373,144.021 246.561,144.345 245.938 C 144.670 245.315,144.859 244.729,144.765 244.634 C 144.671 244.540,144.819 243.644,145.095 242.642 C 145.370 241.640,145.619 240.205,145.647 239.453 C 145.676 238.701,145.817 237.383,145.960 236.523 C 146.476 233.438,146.511 232.398,146.660 216.211 C 146.742 207.188,146.931 198.047,147.079 195.898 C 147.227 193.750,147.374 191.613,147.405 191.151 C 147.436 190.688,147.574 190.379,147.712 190.464 C 147.851 190.550,147.959 190.225,147.953 189.744 C 147.938 188.403,148.257 186.545,148.599 185.992 C 148.768 185.718,148.802 185.391,148.675 185.264 C 148.548 185.137,148.625 184.815,148.845 184.550 C 149.066 184.284,149.211 183.916,149.168 183.733 C 149.063 183.278,149.583 181.236,150.056 180.252 C 150.268 179.810,150.394 179.283,150.337 179.080 C 150.280 178.877,150.620 177.971,151.093 177.066 C 151.566 176.162,151.953 175.151,151.953 174.820 C 151.953 174.489,152.129 174.219,152.344 174.219 C 152.559 174.219,152.745 173.999,152.757 173.730 C 152.779 173.269,153.234 172.344,155.422 168.314 C 155.933 167.372,156.569 166.474,156.836 166.318 C 157.102 166.162,157.539 165.505,157.807 164.858 C 158.075 164.211,158.429 163.765,158.594 163.867 C 158.759 163.969,159.111 163.527,159.377 162.886 C 159.643 162.244,160.103 161.719,160.399 161.719 C 160.695 161.719,160.938 161.558,160.938 161.362 C 160.938 161.166,161.992 159.934,163.281 158.625 C 164.570 157.316,165.625 156.322,165.625 156.416 C 165.625 156.510,166.410 155.852,167.369 154.954 C 169.529 152.929,171.937 150.971,172.236 150.994 C 172.360 151.004,172.864 150.609,173.356 150.117 C 173.848 149.625,174.771 148.953,175.407 148.625 C 176.042 148.296,176.563 147.898,176.563 147.742 C 176.563 147.585,177.073 147.230,177.698 146.954 C 178.322 146.678,179.289 145.995,179.846 145.438 C 180.403 144.881,180.862 144.581,180.865 144.771 C 180.869 144.961,181.000 144.941,181.158 144.727 C 181.602 144.123,183.904 142.578,184.359 142.578 C 184.583 142.578,184.766 142.402,184.766 142.188 C 184.766 141.973,184.949 141.797,185.173 141.797 C 185.396 141.797,185.957 141.445,186.418 141.016 C 186.879 140.586,187.750 140.016,188.355 139.749 C 188.959 139.481,189.453 139.157,189.453 139.027 C 189.453 138.898,190.771 137.930,192.382 136.876 C 193.993 135.823,195.312 134.819,195.312 134.645 C 195.312 134.471,195.479 134.432,195.684 134.558 C 195.888 134.684,196.248 134.426,196.484 133.984 C 196.721 133.543,197.056 133.269,197.229 133.375 C 197.401 133.482,198.223 132.886,199.054 132.050 C 199.885 131.214,200.692 130.609,200.849 130.706 C 201.005 130.802,201.332 130.510,201.575 130.056 C 201.818 129.602,202.105 129.319,202.213 129.427 C 202.594 129.808,211.744 120.266,212.241 118.969 C 212.370 118.634,212.635 118.359,212.831 118.359 C 213.026 118.359,213.405 117.832,213.672 117.188 C 213.939 116.543,214.276 116.016,214.422 116.016 C 214.997 116.016,216.644 109.684,216.239 109.030 C 216.109 108.820,216.157 108.553,216.345 108.436 C 216.810 108.149,216.814 99.052,216.350 96.654 C 216.146 95.594,215.919 94.287,215.846 93.750 C 215.773 93.213,215.674 92.686,215.624 92.578 C 215.575 92.471,215.501 92.207,215.460 91.992 C 215.419 91.777,215.280 91.338,215.152 91.016 C 214.836 90.221,214.560 89.322,214.519 88.955 C 214.501 88.789,214.222 88.173,213.900 87.588 C 213.097 86.130,211.719 82.929,211.719 82.523 C 211.719 82.340,211.460 81.847,211.143 81.427 C 208.862 78.404,207.813 76.911,207.813 76.690 C 207.813 76.390,207.596 76.152,203.795 72.266 C 200.843 69.248,197.960 66.797,197.362 66.797 C 197.175 66.797,196.635 66.436,196.162 65.996 C 195.689 65.555,195.147 65.290,194.958 65.408 C 194.768 65.525,194.512 65.358,194.389 65.037 C 194.266 64.716,193.896 64.453,193.567 64.453 C 193.238 64.453,192.969 64.277,192.969 64.063 C 192.969 63.848,192.704 63.672,192.381 63.672 C 192.058 63.672,190.897 63.240,189.802 62.712 C 187.572 61.636,184.094 60.555,182.031 60.296 C 180.048 60.048,170.036 59.782,169.845 59.973 M246.289 119.545 C 245.000 119.894,243.015 120.737,241.877 121.418 C 240.740 122.099,239.678 122.656,239.519 122.656 C 238.226 122.656,229.297 132.422,229.297 133.837 C 229.297 134.133,229.121 134.375,228.906 134.375 C 228.691 134.375,228.516 134.633,228.516 134.948 C 228.516 135.654,227.276 138.384,226.799 138.730 C 226.606 138.870,226.554 139.259,226.684 139.597 C 226.813 139.934,226.755 140.311,226.555 140.434 C 226.355 140.558,226.252 141.182,226.327 141.822 C 226.401 142.462,226.347 143.056,226.207 143.142 C 226.067 143.229,225.913 143.816,225.865 144.446 C 225.817 145.076,225.541 146.377,225.252 147.337 C 224.963 148.297,224.774 149.684,224.832 150.420 C 224.889 151.156,224.978 152.681,225.028 153.809 C 225.079 154.937,225.280 155.859,225.474 155.859 C 225.668 155.859,225.721 156.032,225.591 156.242 C 225.461 156.452,225.575 157.024,225.845 157.511 C 226.115 157.999,226.291 158.618,226.237 158.887 C 226.182 159.155,226.321 159.375,226.545 159.375 C 226.770 159.375,226.953 159.727,226.953 160.156 C 226.953 160.586,227.129 160.938,227.344 160.938 C 227.559 160.938,227.734 161.163,227.734 161.439 C 227.734 162.490,232.095 167.188,233.071 167.188 C 233.359 167.188,233.594 167.363,233.594 167.578 C 233.594 167.793,233.864 167.969,234.193 167.969 C 234.523 167.969,235.239 168.261,235.785 168.619 C 237.068 169.459,242.624 169.522,243.606 168.707 C 243.966 168.408,244.323 168.213,244.399 168.272 C 244.738 168.536,249.056 167.032,249.336 166.551 C 249.508 166.257,249.882 166.016,250.167 166.016 C 250.452 166.016,250.903 165.754,251.168 165.434 C 251.434 165.114,251.793 164.940,251.966 165.047 C 252.139 165.154,252.647 164.777,253.094 164.209 C 253.541 163.641,253.906 163.314,253.906 163.484 C 253.906 163.653,254.232 163.416,254.630 162.957 C 255.027 162.499,255.451 162.222,255.570 162.341 C 255.690 162.461,255.904 162.194,256.045 161.748 C 256.187 161.302,256.554 160.938,256.862 160.938 C 257.170 160.938,257.422 160.795,257.422 160.621 C 257.422 160.446,257.743 159.959,258.135 159.538 C 258.528 159.116,259.495 157.809,260.286 156.632 C 261.076 155.455,262.071 154.053,262.496 153.516 C 262.922 152.979,263.273 152.342,263.276 152.100 C 263.281 151.721,264.009 149.856,265.239 147.070 C 267.068 142.932,266.909 132.294,264.973 129.195 C 264.806 128.929,264.635 128.476,264.591 128.188 C 264.548 127.901,264.235 127.360,263.897 126.986 C 263.558 126.612,263.281 126.096,263.281 125.839 C 263.281 125.207,258.996 121.094,258.338 121.094 C 258.049 121.094,257.813 120.918,257.813 120.703 C 257.813 120.488,257.461 120.313,257.031 120.313 C 256.602 120.313,256.250 120.154,256.250 119.961 C 256.250 118.788,250.036 118.529,246.289 119.545 M281.712 143.133 C 280.706 143.563,279.824 144.053,279.753 144.223 C 279.681 144.393,279.453 144.531,279.246 144.531 C 278.865 144.531,275.000 148.233,275.000 148.597 C 275.000 148.705,274.468 149.695,273.819 150.797 C 273.169 151.899,272.678 153.006,272.729 153.256 C 272.779 153.506,272.599 154.110,272.330 154.598 C 272.060 155.086,271.938 155.645,272.059 155.840 C 272.179 156.036,272.122 156.293,271.930 156.411 C 271.393 156.743,271.526 162.905,272.106 164.551 C 272.389 165.356,272.539 166.016,272.439 166.016 C 272.338 166.016,272.697 166.715,273.237 167.570 C 273.777 168.425,274.219 169.216,274.219 169.328 C 274.219 170.142,276.022 171.153,277.471 171.153 C 280.318 171.153,284.375 170.182,284.375 169.501 C 284.375 169.303,284.620 169.141,284.919 169.141 C 285.218 169.141,285.564 168.877,285.688 168.555 C 285.812 168.232,286.170 167.969,286.485 167.969 C 286.799 167.969,287.163 167.633,287.293 167.224 C 287.423 166.814,287.787 166.380,288.101 166.259 C 288.415 166.139,288.672 165.771,288.672 165.442 C 288.672 165.113,288.828 164.844,289.019 164.844 C 289.431 164.844,291.900 159.797,291.981 158.789 C 291.999 158.574,292.154 158.174,292.325 157.899 C 293.464 156.079,292.291 146.094,290.939 146.094 C 290.766 146.094,290.625 145.910,290.625 145.684 C 290.625 145.459,290.142 144.840,289.551 144.308 C 286.986 141.999,285.044 141.708,281.712 143.133 M304.859 161.367 C 304.732 161.572,304.422 161.692,304.170 161.634 C 303.917 161.577,303.079 162.011,302.307 162.601 C 301.535 163.190,300.796 163.672,300.664 163.672 C 300.280 163.672,298.438 165.626,298.438 166.033 C 298.438 166.238,298.262 166.406,298.047 166.406 C 297.832 166.406,297.656 166.670,297.656 166.992 C 297.656 167.314,297.524 167.579,297.363 167.580 C 296.918 167.582,295.591 171.039,295.547 172.313 C 295.525 172.930,295.383 173.436,295.230 173.437 C 294.812 173.438,295.177 179.725,295.667 180.957 C 296.640 183.405,296.782 183.804,296.790 184.119 C 296.795 184.300,297.293 184.964,297.897 185.594 C 299.029 186.776,299.610 186.833,302.668 186.065 C 305.112 185.452,309.037 182.285,310.061 180.101 C 310.419 179.337,310.939 178.479,311.216 178.195 C 311.492 177.911,311.719 177.266,311.719 176.762 C 311.719 176.259,311.889 175.788,312.097 175.716 C 312.305 175.645,312.574 174.385,312.694 172.916 C 312.814 171.448,312.941 170.129,312.976 169.986 C 313.061 169.636,312.488 167.225,312.032 166.016 C 311.830 165.479,311.637 164.951,311.605 164.844 C 311.137 163.294,305.472 160.375,304.859 161.367 M246.403 179.500 C 246.340 179.558,245.498 179.710,244.531 179.839 C 242.045 180.169,238.972 180.561,238.274 180.637 C 237.948 180.672,237.465 180.835,237.200 180.999 C 236.935 181.162,236.555 181.195,236.355 181.071 C 236.155 180.948,235.892 181.008,235.770 181.204 C 235.649 181.401,234.644 181.779,233.538 182.045 C 232.432 182.310,231.069 182.766,230.510 183.058 C 229.950 183.350,229.312 183.590,229.092 183.591 C 228.871 183.593,227.641 184.116,226.357 184.753 C 225.074 185.391,223.804 185.918,223.535 185.925 C 223.267 185.932,223.047 186.073,223.047 186.240 C 223.047 186.406,221.906 187.121,220.512 187.830 C 219.118 188.538,217.805 189.413,217.594 189.774 C 217.384 190.134,217.206 190.277,217.199 190.090 C 217.187 189.736,214.469 191.648,213.971 192.362 C 213.813 192.588,213.681 192.647,213.678 192.493 C 213.666 191.920,205.469 199.754,205.469 200.337 C 205.469 200.536,205.205 200.799,204.883 200.923 C 204.561 201.046,204.297 201.417,204.297 201.746 C 204.297 202.075,204.121 202.344,203.906 202.344 C 203.691 202.344,203.516 202.607,203.516 202.930 C 203.516 203.252,203.311 203.472,203.062 203.418 C 202.812 203.364,202.505 203.712,202.378 204.191 C 202.252 204.669,201.883 205.372,201.560 205.753 C 200.796 206.651,197.965 212.549,198.190 212.774 C 198.285 212.868,198.134 213.387,197.854 213.925 C 197.251 215.089,197.161 224.085,197.721 227.366 C 198.053 229.310,198.362 231.371,198.627 233.398 C 198.683 233.828,198.764 234.180,198.807 234.180 C 198.851 234.180,198.958 234.619,199.046 235.156 C 199.134 235.693,199.322 236.748,199.464 237.500 C 199.605 238.252,199.768 239.231,199.826 239.675 C 199.884 240.119,200.141 241.260,200.397 242.210 C 200.653 243.160,200.943 244.467,201.043 245.113 C 201.143 245.760,201.278 246.641,201.343 247.070 C 201.409 247.500,201.501 247.852,201.548 247.852 C 201.596 247.852,201.713 248.467,201.809 249.219 C 201.905 249.971,202.091 250.850,202.223 251.172 C 202.602 252.101,202.703 252.790,202.782 254.995 C 202.822 256.131,202.964 257.127,203.095 257.208 C 203.713 257.590,203.132 269.150,202.361 271.821 C 202.153 272.544,202.004 273.247,202.030 273.384 C 202.056 273.521,201.977 273.896,201.855 274.219 C 201.733 274.541,201.330 275.771,200.959 276.953 C 200.035 279.893,199.852 280.359,198.679 282.751 C 198.117 283.899,197.656 285.173,197.656 285.583 C 197.656 285.993,197.511 286.328,197.334 286.328 C 197.157 286.328,196.507 287.427,195.890 288.770 C 195.272 290.112,194.550 291.432,194.284 291.702 C 194.019 291.971,193.690 292.543,193.554 292.971 C 193.418 293.399,193.151 293.750,192.961 293.750 C 192.770 293.750,192.329 294.352,191.980 295.087 C 191.631 295.822,191.096 296.520,190.790 296.637 C 190.484 296.755,190.234 297.024,190.234 297.236 C 190.234 297.447,189.839 298.041,189.355 298.556 C 188.872 299.070,188.091 300.001,187.619 300.624 C 187.147 301.248,185.345 303.249,183.615 305.071 C 181.885 306.894,180.469 308.549,180.469 308.750 C 180.469 308.950,180.363 309.009,180.233 308.879 C 180.104 308.749,179.299 309.335,178.444 310.181 C 177.590 311.027,176.729 311.719,176.532 311.719 C 176.334 311.719,176.172 311.988,176.172 312.317 C 176.172 312.646,175.864 313.024,175.488 313.157 C 175.112 313.290,174.331 313.900,173.752 314.512 C 173.174 315.124,172.633 315.625,172.551 315.625 C 172.130 315.625,168.750 319.047,168.750 319.472 C 168.750 319.745,168.601 319.876,168.418 319.763 C 168.236 319.650,167.733 319.947,167.302 320.423 C 166.201 321.638,164.845 322.704,164.838 322.359 C 164.835 322.200,164.615 322.490,164.350 323.003 C 164.084 323.516,163.743 323.868,163.590 323.784 C 163.438 323.701,162.867 324.238,162.321 324.978 C 161.775 325.718,161.328 326.204,161.328 326.058 C 161.328 325.911,160.449 326.666,159.375 327.734 C 158.301 328.803,157.422 329.855,157.422 330.073 C 157.422 330.291,157.168 330.469,156.858 330.469 C 156.548 330.469,155.983 330.996,155.602 331.641 C 155.221 332.285,154.684 332.812,154.408 332.813 C 154.132 332.813,153.906 332.994,153.906 333.216 C 153.906 333.438,153.379 334.136,152.734 334.766 C 152.090 335.396,151.562 335.990,151.563 336.086 C 151.563 336.317,150.220 337.901,148.047 340.235 C 144.766 343.759,144.531 344.055,144.531 344.665 C 144.531 345.000,144.299 345.414,144.016 345.586 C 143.367 345.980,141.406 349.923,141.406 350.835 C 141.406 351.210,141.215 351.634,140.982 351.779 C 140.748 351.923,140.644 352.373,140.750 352.778 C 140.856 353.184,140.812 353.516,140.653 353.516 C 140.139 353.516,140.272 361.454,140.824 363.672 C 141.691 367.158,143.541 371.421,144.434 371.992 C 144.702 372.164,144.922 372.479,144.922 372.692 C 144.922 373.582,150.857 379.688,151.723 379.688 C 152.064 379.688,152.344 379.863,152.344 380.078 C 152.344 380.293,152.695 380.469,153.125 380.469 C 153.555 380.469,153.906 380.645,153.906 380.859 C 153.906 381.074,154.151 381.250,154.450 381.250 C 154.750 381.250,155.081 381.476,155.188 381.753 C 155.474 382.501,161.828 382.848,164.490 382.261 C 165.048 382.138,166.015 381.972,166.639 381.891 C 168.078 381.704,168.624 381.497,172.566 379.644 C 174.342 378.808,175.949 378.125,176.137 378.125 C 176.325 378.125,176.584 377.850,176.713 377.514 C 176.842 377.178,177.102 376.999,177.290 377.115 C 177.478 377.232,178.139 376.891,178.758 376.359 C 179.376 375.827,180.059 375.387,180.273 375.382 C 180.488 375.377,181.322 374.805,182.125 374.112 C 182.929 373.419,184.220 372.324,184.995 371.680 C 187.560 369.545,189.844 367.356,189.844 367.031 C 189.844 366.855,190.635 365.931,191.602 364.978 C 192.568 364.025,193.359 363.085,193.359 362.890 C 193.359 362.695,193.799 362.096,194.336 361.559 C 194.873 361.022,195.312 360.399,195.313 360.174 C 195.313 359.949,195.576 359.766,195.898 359.766 C 196.221 359.766,196.484 359.544,196.484 359.273 C 196.484 359.003,196.889 358.343,197.383 357.809 C 197.878 357.274,198.400 356.528,198.543 356.152 C 198.686 355.776,198.985 355.469,199.206 355.469 C 199.428 355.469,199.609 355.285,199.609 355.061 C 199.609 354.837,200.049 354.179,200.586 353.600 C 201.123 353.021,201.563 352.326,201.563 352.055 C 201.563 351.784,201.826 351.563,202.148 351.563 C 202.471 351.563,202.734 351.329,202.734 351.045 C 202.734 350.760,203.174 350.114,203.711 349.609 C 204.248 349.105,204.688 348.371,204.688 347.979 C 204.688 347.587,204.936 347.266,205.241 347.266 C 205.545 347.266,206.022 346.751,206.300 346.122 C 206.579 345.493,206.932 345.056,207.086 345.151 C 207.240 345.246,207.480 344.964,207.619 344.524 C 207.759 344.085,208.255 343.325,208.722 342.836 C 209.188 342.347,209.834 341.533,210.156 341.026 C 210.479 340.520,211.050 339.783,211.426 339.389 C 211.802 338.994,212.109 338.574,212.109 338.453 C 212.109 338.333,213.340 336.762,214.844 334.961 C 216.348 333.160,217.578 331.491,217.578 331.250 C 217.578 331.010,217.754 330.922,217.969 331.055 C 218.184 331.187,218.359 331.139,218.359 330.946 C 218.359 330.753,219.062 329.857,219.922 328.953 C 220.781 328.050,221.484 327.132,221.484 326.914 C 221.484 326.695,221.660 326.625,221.875 326.758 C 222.090 326.891,222.266 326.825,222.266 326.612 C 222.266 326.399,222.608 326.116,223.027 325.983 C 223.446 325.850,223.897 325.399,224.030 324.980 C 224.163 324.561,224.529 324.219,224.843 324.219 C 225.158 324.219,225.529 323.911,225.669 323.535 C 225.924 322.847,227.263 321.489,227.696 321.479 C 227.825 321.476,229.204 320.259,230.762 318.774 C 232.319 317.289,233.594 316.168,233.594 316.283 C 233.594 316.399,233.939 316.078,234.362 315.571 C 234.785 315.063,235.136 314.751,235.143 314.877 C 235.156 315.093,238.049 312.587,240.887 309.902 C 241.602 309.226,242.188 308.750,242.188 308.846 C 242.188 308.942,242.597 308.616,243.098 308.123 C 243.598 307.630,244.851 306.523,245.882 305.664 C 246.912 304.805,247.996 303.869,248.292 303.585 C 248.587 303.301,248.828 303.170,248.828 303.292 C 248.828 303.415,249.167 303.208,249.581 302.832 C 249.996 302.456,250.567 301.937,250.851 301.679 C 251.135 301.421,251.578 300.981,251.837 300.702 C 252.515 299.970,253.450 299.219,253.684 299.219 C 253.795 299.219,254.681 298.423,255.654 297.451 C 256.626 296.478,257.422 295.785,257.422 295.910 C 257.422 296.103,259.549 294.229,261.647 292.188 C 261.978 291.865,262.375 291.602,262.530 291.602 C 262.684 291.602,263.400 291.025,264.120 290.321 C 264.840 289.616,266.430 288.122,267.653 287.000 C 268.877 285.879,270.498 284.390,271.256 283.691 C 272.015 282.993,272.816 282.422,273.036 282.422 C 273.257 282.422,273.438 282.232,273.438 282.000 C 273.438 281.768,274.800 280.275,276.465 278.683 C 278.130 277.090,279.622 275.654,279.780 275.491 C 282.804 272.388,284.766 270.176,284.766 269.869 C 284.766 269.658,284.941 269.594,285.156 269.727 C 285.371 269.859,285.547 269.785,285.547 269.561 C 285.547 269.157,286.705 267.731,288.770 265.592 C 289.360 264.980,289.844 264.287,289.844 264.053 C 289.844 263.818,290.012 263.730,290.218 263.857 C 290.423 263.984,290.872 263.546,291.215 262.883 C 291.558 262.220,292.137 261.348,292.501 260.945 C 292.866 260.542,293.340 259.980,293.555 259.696 C 296.203 256.195,297.266 254.653,297.266 254.314 C 297.266 254.090,297.403 253.906,297.570 253.906 C 297.938 253.906,300.442 248.614,301.921 244.710 C 302.634 242.829,303.880 236.323,303.645 235.711 C 303.528 235.406,303.597 235.156,303.798 235.156 C 304.011 235.156,304.095 233.648,303.999 231.543 C 303.908 229.556,303.832 227.578,303.831 227.148 C 303.829 226.719,303.646 225.400,303.423 224.219 C 303.201 223.037,302.987 221.807,302.948 221.484 C 302.752 219.853,301.532 216.083,300.358 213.477 C 299.874 212.402,299.456 211.436,299.429 211.328 C 299.299 210.802,297.571 207.479,296.889 206.445 C 296.465 205.801,295.840 204.782,295.500 204.181 C 294.893 203.106,294.056 202.002,293.039 200.933 C 292.755 200.635,292.663 200.391,292.835 200.391 C 293.007 200.391,292.757 199.995,292.279 199.512 C 291.802 199.028,290.707 197.893,289.846 196.988 C 288.985 196.083,288.281 195.424,288.281 195.524 C 288.281 195.623,287.710 195.118,287.012 194.400 C 286.313 193.683,285.039 192.594,284.180 191.980 C 283.320 191.367,282.441 190.679,282.227 190.452 C 281.678 189.872,277.419 187.111,277.057 187.101 C 276.892 187.096,276.318 186.748,275.781 186.328 C 275.244 185.908,274.497 185.560,274.121 185.556 C 273.745 185.551,273.438 185.392,273.438 185.202 C 273.438 185.012,273.130 184.758,272.754 184.638 C 270.581 183.941,267.591 182.836,266.951 182.493 C 265.071 181.487,263.264 180.859,262.243 180.859 C 261.630 180.859,260.523 180.686,259.783 180.474 C 258.482 180.101,255.182 179.802,249.332 179.527 C 247.783 179.455,246.465 179.443,246.403 179.500 M320.094 186.511 C 319.677 186.826,319.055 187.090,318.712 187.097 C 318.369 187.104,317.446 187.733,316.661 188.495 C 315.877 189.258,315.232 189.741,315.229 189.570 C 315.223 189.281,314.471 190.453,313.810 191.780 C 313.654 192.092,313.262 192.657,312.939 193.035 C 312.319 193.759,311.238 197.243,311.172 198.730 C 311.150 199.214,311.028 199.609,310.899 199.609 C 310.472 199.609,311.308 204.079,311.995 205.469 C 312.707 206.909,314.453 209.246,314.453 208.758 C 314.453 208.601,314.761 208.746,315.137 209.079 C 316.006 209.851,318.505 209.718,319.465 208.849 C 319.857 208.494,320.366 208.203,320.594 208.203 C 320.823 208.203,321.116 207.928,321.245 207.592 C 321.373 207.257,321.656 207.091,321.872 207.225 C 322.089 207.359,322.266 207.177,322.266 206.822 C 322.266 206.467,322.617 206.085,323.047 205.973 C 323.477 205.860,323.828 205.540,323.828 205.260 C 323.828 204.981,323.986 204.694,324.179 204.622 C 324.650 204.448,327.171 198.930,327.552 197.242 C 327.969 195.392,327.803 192.838,327.166 191.314 C 326.873 190.613,326.624 189.900,326.613 189.731 C 326.492 187.920,321.495 185.452,320.094 186.511 M327.734 214.350 C 325.419 214.984,321.875 218.268,321.875 219.781 C 321.875 220.045,321.671 220.756,321.421 221.361 C 321.172 221.966,320.991 222.578,321.020 222.721 C 321.048 222.864,321.104 223.963,321.143 225.165 C 321.185 226.438,321.434 227.530,321.740 227.784 C 322.029 228.024,322.266 228.433,322.266 228.693 C 322.266 229.356,323.892 230.150,325.446 230.246 C 328.196 230.416,331.250 227.894,331.250 225.455 C 331.250 225.205,331.412 225.000,331.610 225.000 C 331.807 225.000,332.085 224.475,332.226 223.833 C 332.367 223.191,332.641 222.567,332.835 222.447 C 333.044 222.318,333.044 221.960,332.835 221.564 C 332.641 221.198,332.192 219.787,331.838 218.429 C 331.006 215.240,329.598 213.840,327.734 214.350 " stroke="none" fill="#000000" fill-rule="evenodd"></path></g></svg>